<?xml version="1.0" encoding="UTF-8"?>
<svg xmlns="http://www.w3.org/2000/svg" xmlns:xlink="http://www.w3.org/1999/xlink" width="50pt" height="50pt" viewBox="0 0 50 50" version="1.1">
<g id="surface16498342">
<path style=" stroke:none;fill-rule:nonzero;fill:rgb(47.058824%,62.745098%,81.176471%);fill-opacity:1;" d="M 6.5 13.5 C 5.949219 13.5 5.5 13.949219 5.5 14.5 C 5.5 15.050781 5.949219 15.5 6.5 15.5 C 7.050781 15.5 7.5 15.050781 7.5 14.5 C 7.5 13.949219 7.050781 13.5 6.5 13.5 Z M 6.5 13.5 "/>
<path style=" stroke:none;fill-rule:nonzero;fill:rgb(94.509804%,73.72549%,9.803922%);fill-opacity:1;" d="M 38.5 6 C 38.222656 6 38 6.222656 38 6.5 C 38 6.777344 38.222656 7 38.5 7 C 38.777344 7 39 6.777344 39 6.5 C 39 6.222656 38.777344 6 38.5 6 Z M 38.5 6 "/>
<path style=" stroke:none;fill-rule:nonzero;fill:rgb(80.784314%,88.235294%,95.686275%);fill-opacity:1;" d="M 25 6.5 C 14.78125 6.5 6.5 14.78125 6.5 25 C 6.5 35.21875 14.78125 43.5 25 43.5 C 35.21875 43.5 43.5 35.21875 43.5 25 C 43.5 14.78125 35.21875 6.5 25 6.5 Z M 25 6.5 "/>
<path style=" stroke:none;fill-rule:nonzero;fill:rgb(94.509804%,73.72549%,9.803922%);fill-opacity:1;" d="M 41.5 5.5 C 40.394531 5.5 39.5 6.394531 39.5 7.5 C 39.5 8.605469 40.394531 9.5 41.5 9.5 C 42.605469 9.5 43.5 8.605469 43.5 7.5 C 43.5 6.394531 42.605469 5.5 41.5 5.5 Z M 41.5 5.5 "/>
<path style=" stroke:none;fill-rule:nonzero;fill:rgb(47.058824%,62.745098%,81.176471%);fill-opacity:1;" d="M 43.5 11 C 42.949219 11 42.5 11.449219 42.5 12 C 42.5 12.550781 42.949219 13 43.5 13 C 44.050781 13 44.5 12.550781 44.5 12 C 44.5 11.449219 44.050781 11 43.5 11 Z M 43.5 11 "/>
<path style=" stroke:none;fill-rule:nonzero;fill:rgb(98.431373%,80.392157%,34.901961%);fill-opacity:1;" d="M 40.5 37 C 39.949219 37 39.5 37.449219 39.5 38 C 39.5 38.550781 39.949219 39 40.5 39 C 41.050781 39 41.5 38.550781 41.5 38 C 41.5 37.449219 41.050781 37 40.5 37 Z M 7.5 29.5 C 6.394531 29.5 5.5 30.394531 5.5 31.5 C 5.5 32.605469 6.394531 33.5 7.5 33.5 C 8.605469 33.5 9.5 32.605469 9.5 31.5 C 9.5 30.394531 8.605469 29.5 7.5 29.5 Z M 7.5 29.5 "/>
<path style=" stroke:none;fill-rule:nonzero;fill:rgb(47.058824%,62.745098%,81.176471%);fill-opacity:1;" d="M 12.5 42.5 C 11.949219 42.5 11.5 42.949219 11.5 43.5 C 11.5 44.050781 11.949219 44.5 12.5 44.5 C 13.050781 44.5 13.5 44.050781 13.5 43.5 C 13.5 42.949219 13.050781 42.5 12.5 42.5 Z M 12.5 42.5 "/>
<path style=" stroke:none;fill-rule:nonzero;fill:rgb(100%,100%,100%);fill-opacity:1;" d="M 9.25 25.5 C 8.558594 25.5 8 26.058594 8 26.75 C 8 27.441406 8.558594 28 9.25 28 C 9.941406 28 10.5 27.441406 10.5 26.75 C 10.5 26.058594 9.941406 25.5 9.25 25.5 Z M 9.25 25.5 "/>
<path style=" stroke:none;fill-rule:nonzero;fill:rgb(94.509804%,73.72549%,9.803922%);fill-opacity:1;" d="M 10.5 33 C 10.222656 33 10 33.222656 10 33.5 C 10 33.777344 10.222656 34 10.5 34 C 10.777344 34 11 33.777344 11 33.5 C 11 33.222656 10.777344 33 10.5 33 Z M 10.5 33 "/>
<path style=" stroke:none;fill-rule:nonzero;fill:rgb(100%,100%,100%);fill-opacity:1;" d="M 40 16.5 C 39.722656 16.5 39.5 16.722656 39.5 17 C 39.5 17.277344 39.722656 17.5 40 17.5 C 40.277344 17.5 40.5 17.277344 40.5 17 C 40.5 16.722656 40.277344 16.5 40 16.5 Z M 40 16.5 "/>
<path style=" stroke:none;fill-rule:nonzero;fill:rgb(94.509804%,73.72549%,9.803922%);fill-opacity:1;" d="M 32.5 14 C 34.429688 14 36 15.570312 36 17.5 L 36 32.5 C 36 34.429688 34.429688 36 32.5 36 L 17.5 36 C 15.570312 36 14 34.429688 14 32.5 L 14 17.5 C 14 15.570312 15.570312 14 17.5 14 L 32.5 14 "/>
<path style=" stroke:none;fill-rule:nonzero;fill:rgb(27.843137%,16.862745%,16.078431%);fill-opacity:1;" d="M 32.5 14.199219 C 34.320312 14.199219 35.800781 15.679688 35.800781 17.5 L 35.800781 32.5 C 35.800781 34.320312 34.320312 35.800781 32.5 35.800781 L 17.5 35.800781 C 15.679688 35.800781 14.199219 34.320312 14.199219 32.5 L 14.199219 17.5 C 14.199219 15.679688 15.679688 14.199219 17.5 14.199219 L 32.5 14.199219 M 32.5 13.5 L 17.5 13.5 C 15.289062 13.5 13.5 15.289062 13.5 17.5 L 13.5 32.5 C 13.5 34.710938 15.289062 36.5 17.5 36.5 L 32.5 36.5 C 34.710938 36.5 36.5 34.710938 36.5 32.5 L 36.5 17.5 C 36.5 15.289062 34.710938 13.5 32.5 13.5 Z M 32.5 13.5 "/>
<path style=" stroke:none;fill-rule:nonzero;fill:rgb(99.215686%,98.823529%,93.333333%);fill-opacity:1;" d="M 31.5 34.5 L 18.5 34.5 C 16.84375 34.5 15.5 33.15625 15.5 31.5 L 15.5 18.5 C 15.5 16.84375 16.84375 15.5 18.5 15.5 L 31.5 15.5 C 33.15625 15.5 34.5 16.84375 34.5 18.5 L 34.5 31.5 C 34.5 33.15625 33.15625 34.5 31.5 34.5 Z M 31.5 34.5 "/>
<path style=" stroke:none;fill-rule:nonzero;fill:rgb(27.843137%,16.862745%,16.078431%);fill-opacity:1;" d="M 31.5 34.5 L 18.5 34.5 C 16.84375 34.5 15.5 33.15625 15.5 31.5 L 15.5 18.5 C 15.5 16.84375 16.84375 15.5 18.5 15.5 L 30.8125 15.5 C 30.914062 15.5 31 15.585938 31 15.6875 C 31 15.789062 30.914062 15.875 30.8125 15.875 L 18.5 15.875 C 17.050781 15.875 15.875 17.050781 15.875 18.5 L 15.875 31.5 C 15.875 32.949219 17.050781 34.125 18.5 34.125 L 31.5 34.125 C 32.949219 34.125 34.125 32.949219 34.125 31.5 L 34.125 24.1875 C 34.125 24.085938 34.210938 24 34.3125 24 C 34.414062 24 34.5 24.085938 34.5 24.1875 L 34.5 31.5 C 34.5 33.15625 33.15625 34.5 31.5 34.5 Z M 34.3125 21 C 34.210938 21 34.125 20.914062 34.125 20.8125 L 34.125 20.171875 C 34.125 20.070312 34.210938 19.984375 34.3125 19.984375 C 34.414062 19.984375 34.5 20.070312 34.5 20.171875 L 34.5 20.8125 C 34.5 20.914062 34.414062 21 34.3125 21 Z M 34.3125 21 "/>
<path style=" stroke:none;fill-rule:nonzero;fill:rgb(27.843137%,16.862745%,16.078431%);fill-opacity:1;" d="M 34.3125 23.5 C 34.210938 23.5 34.125 23.414062 34.125 23.3125 L 34.125 21.6875 C 34.125 21.585938 34.210938 21.5 34.3125 21.5 C 34.414062 21.5 34.5 21.585938 34.5 21.6875 L 34.5 23.3125 C 34.5 23.414062 34.414062 23.5 34.3125 23.5 Z M 34.3125 23.5 "/>
<path style=" stroke:none;fill-rule:nonzero;fill:rgb(94.509804%,73.72549%,9.803922%);fill-opacity:1;" d="M 28.84375 19.6875 C 28.644531 19.6875 28.46875 19.746094 28.34375 19.871094 L 21.15625 27.066406 C 20.925781 27.296875 20.4375 28.585938 20.082031 29.527344 C 19.921875 29.953125 19.78125 30.3125 19.703125 30.492188 C 19.675781 30.554688 19.6875 30.625 19.734375 30.671875 L 19.8125 30.75 C 19.875 30.8125 19.964844 30.828125 20.046875 30.792969 C 20.253906 30.699219 20.640625 30.550781 21.089844 30.382812 C 22.042969 30.019531 23.214844 29.574219 23.441406 29.351562 L 30.628906 22.15625 C 31 21.785156 30.789062 20.96875 30.160156 20.339844 C 29.742188 19.921875 29.242188 19.6875 28.84375 19.6875 Z M 28.84375 19.6875 "/>
<path style=" stroke:none;fill-rule:nonzero;fill:rgb(99.215686%,98.823529%,93.333333%);fill-opacity:1;" d="M 21.15625 27.066406 C 20.925781 27.296875 20.4375 28.585938 20.082031 29.527344 C 19.921875 29.953125 19.78125 30.3125 19.703125 30.492188 C 19.675781 30.554688 19.6875 30.625 19.734375 30.671875 L 19.8125 30.75 C 19.875 30.8125 19.964844 30.828125 20.046875 30.792969 C 20.253906 30.699219 20.640625 30.550781 21.089844 30.382812 C 22.042969 30.019531 23.214844 29.574219 23.441406 29.351562 Z M 21.15625 27.066406 "/>
<path style=" stroke:none;fill-rule:nonzero;fill:rgb(29.019608%,32.54902%,59.215686%);fill-opacity:1;" d="M 20.089844 29.5 C 20.085938 29.511719 20.085938 29.519531 20.082031 29.527344 C 19.917969 29.953125 19.78125 30.316406 19.703125 30.492188 C 19.675781 30.554688 19.6875 30.625 19.734375 30.671875 L 19.8125 30.75 C 19.875 30.8125 19.964844 30.828125 20.046875 30.792969 C 20.242188 30.707031 20.59375 30.570312 21.003906 30.414062 Z M 20.089844 29.5 "/>
<path style=" stroke:none;fill-rule:nonzero;fill:rgb(46.666667%,50.980392%,67.45098%);fill-opacity:1;" d="M 26.757812 21.492188 L 27.75 20.5 L 30.03125 22.78125 L 29.039062 23.773438 Z M 26.757812 21.492188 "/>
<path style=" stroke:none;fill-rule:nonzero;fill:rgb(98.823529%,72.54902%,72.54902%);fill-opacity:1;" d="M 30.019531 22.769531 L 30.628906 22.15625 C 31 21.785156 30.789062 20.96875 30.160156 20.339844 C 29.742188 19.921875 29.242188 19.6875 28.84375 19.6875 C 28.644531 19.6875 28.46875 19.746094 28.34375 19.871094 L 27.734375 20.484375 Z M 30.019531 22.769531 "/>
<path style=" stroke:none;fill-rule:nonzero;fill:rgb(27.843137%,16.862745%,16.078431%);fill-opacity:1;" d="M 28.84375 19.875 C 29.207031 19.875 29.660156 20.105469 30.027344 20.472656 C 30.632812 21.078125 30.757812 21.761719 30.496094 22.027344 L 23.304688 29.21875 C 23.113281 29.414062 21.859375 29.890625 21.03125 30.203125 L 20.992188 30.21875 C 20.554688 30.382812 20.179688 30.527344 19.945312 30.617188 L 19.878906 30.554688 C 19.96875 30.355469 20.109375 29.984375 20.257812 29.59375 C 20.566406 28.773438 21.085938 27.402344 21.289062 27.199219 L 28.476562 20.003906 C 28.5625 19.917969 28.6875 19.875 28.84375 19.875 M 28.84375 19.5 C 28.59375 19.5 28.371094 19.578125 28.210938 19.738281 L 21.023438 26.933594 C 20.78125 27.175781 20.390625 28.175781 19.90625 29.460938 C 19.746094 29.882812 19.609375 30.238281 19.53125 30.417969 C 19.472656 30.550781 19.5 30.703125 19.601562 30.804688 L 19.679688 30.882812 C 19.757812 30.960938 19.859375 31 19.960938 31 C 20.015625 31 20.070312 30.988281 20.125 30.964844 C 20.328125 30.871094 20.714844 30.726562 21.164062 30.554688 C 22.425781 30.074219 23.339844 29.71875 23.570312 29.484375 L 30.761719 22.289062 C 31.214844 21.839844 31.007812 20.921875 30.292969 20.207031 C 29.835938 19.75 29.292969 19.5 28.84375 19.5 Z M 28.84375 19.5 "/>
<path style=" stroke:none;fill-rule:nonzero;fill:rgb(27.843137%,16.862745%,16.078431%);fill-opacity:1;" d="M 21.066406 27.152344 L 21.242188 26.976562 L 23.527344 29.261719 L 23.351562 29.4375 Z M 21.066406 27.152344 "/>
<path style=" stroke:none;fill-rule:nonzero;fill:rgb(27.843137%,16.862745%,16.078431%);fill-opacity:1;" d="M 19.957031 29.542969 L 20.132812 29.367188 L 21.132812 30.367188 L 20.957031 30.542969 Z M 19.957031 29.542969 "/>
<path style=" stroke:none;fill-rule:nonzero;fill:rgb(27.843137%,16.862745%,16.078431%);fill-opacity:1;" d="M 26.667969 21.582031 L 26.84375 21.402344 L 29.125 23.683594 L 28.949219 23.863281 Z M 26.667969 21.582031 "/>
<path style=" stroke:none;fill-rule:nonzero;fill:rgb(27.843137%,16.862745%,16.078431%);fill-opacity:1;" d="M 27.660156 20.589844 L 27.839844 20.410156 L 30.117188 22.691406 L 29.941406 22.871094 Z M 27.660156 20.589844 "/>
<path style=" stroke:none;fill-rule:nonzero;fill:rgb(27.843137%,16.862745%,16.078431%);fill-opacity:1;" d="M 27.308594 22.023438 L 27.191406 21.976562 L 27.753906 20.664062 L 27.871094 20.710938 Z M 27.746094 22.398438 L 27.628906 22.351562 L 28.191406 21.039062 L 28.308594 21.085938 Z M 28.183594 22.773438 L 28.066406 22.726562 L 28.628906 21.414062 L 28.746094 21.460938 Z M 28.570312 23.261719 L 28.457031 23.210938 L 29.066406 21.789062 L 29.183594 21.835938 Z M 28.992188 23.679688 L 28.875 23.632812 L 29.503906 22.164062 L 29.621094 22.210938 Z M 28.992188 23.679688 "/>
<path style=" stroke:none;fill-rule:nonzero;fill:rgb(0%,0%,0%);fill-opacity:1;" d="M 28.835938 20.039062 L 28.835938 21.117188 L 25.648438 21.117188 L 25.648438 29.960938 L 24.34375 29.960938 L 24.34375 21.117188 L 21.164062 21.117188 L 21.164062 20.039062 Z M 28.835938 20.039062 "/>
</g>
</svg>
